name C:\Users\u0101727\Documents\MyRepositories\predictivesimulations\OpenSimModel\subject1\EMG\EMG_gait_61.mot
datacolumns 25
datarows 22
range 0.00100000 0.02200000
endheader
time	HamL_r	TA_r	PerL_r	GL_r	HamM_r	Sol_r	VL_r	VM_r	PerB_l	TA_l	PerL_l	GL_l	GM_l	Sol_l	VL_l	VM_l	AddL_l	RF_l	TFL_l	GluMed_l	HamL_l	HamM_l	GluMed_r	RF_r	
          0.00100000	          0.00100000	          0.00100000	          0.00123842	          0.00100000	          0.00100000	          0.00100000	          0.00100000	          0.00100000	          0.00860834	          0.00100000	          0.00100000	          0.02120250	          0.00100000	          0.08097215	          0.00100000	          0.00832082	          0.00152875	          0.00451651	          0.00543855	          0.00100000	          0.00419060	          0.00316916	          0.00126090	          0.00100000	
          0.00200000	          0.00100000	          0.00100000	          0.00131825	          0.00100000	          0.00100000	          0.00100000	          0.00100000	          0.00100000	          0.01354929	          0.00100000	          0.00100000	          0.02243242	          0.00100000	          0.08441119	          0.00100000	          0.00942887	          0.00186803	          0.00501708	          0.00606120	          0.00100000	          0.00458435	          0.00345027	          0.00150101	          0.00100000	
          0.00300000	          0.00100000	          0.00100000	          0.00139915	          0.00100000	          0.00100000	          0.00104057	          0.00100000	          0.00100716	          0.01847133	          0.00100000	          0.00100000	          0.02366721	          0.00100000	          0.08788813	          0.00100000	          0.01052506	          0.00220863	          0.00552293	          0.00669425	          0.00100000	          0.00498026	          0.00373119	          0.00174280	          0.00100000	
          0.00400000	          0.00100627	          0.00112268	          0.00148091	          0.00100000	          0.00100000	          0.00143586	          0.00100000	          0.00111882	          0.02335733	          0.00100000	          0.00393779	          0.02490074	          0.00311925	          0.09138918	          0.00100000	          0.01160568	          0.00254891	          0.00603262	          0.00733577	          0.00100000	          0.00537627	          0.00401107	          0.00198567	          0.00133408	
          0.00500000	          0.00124930	          0.00130588	          0.00156329	          0.00100000	          0.00100000	          0.00182828	          0.00100000	          0.00122913	          0.02819214	          0.00100000	          0.00741297	          0.02612808	          0.00610102	          0.09490080	          0.00100000	          0.01266694	          0.00288755	          0.00654475	          0.00798387	          0.00100000	          0.00577058	          0.00428903	          0.00222904	          0.00198455	
          0.00600000	          0.00148512	          0.00148680	          0.00164607	          0.00102578	          0.00100000	          0.00221679	          0.00100000	          0.00133771	          0.03296253	          0.00100000	          0.01083798	          0.02734492	          0.00903383	          0.09840975	          0.00100000	          0.01370490	          0.00322357	          0.00705793	          0.00863687	          0.00100000	          0.00616168	          0.00456422	          0.00247231	          0.00262362	
          0.00700000	          0.00171289	          0.00166491	          0.00172901	          0.00122297	          0.00100000	          0.00260041	          0.00111345	          0.00144416	          0.03765654	          0.00100000	          0.01420417	          0.02854719	          0.01191074	          0.10190279	          0.00100954	          0.01471557	          0.00355625	          0.00757077	          0.00929334	          0.00100000	          0.00654837	          0.00483577	          0.00271488	          0.00324956	
          0.00800000	          0.00193191	          0.00183967	          0.00181189	          0.00141570	          0.00100000	          0.00297821	          0.00142208	          0.00154814	          0.04226313	          0.00100000	          0.01750369	          0.02973118	          0.01472639	          0.10536637	          0.00199361	          0.01569501	          0.00388493	          0.00808185	          0.00995203	          0.00100000	          0.00692971	          0.00510278	          0.00295619	          0.00386083	
          0.00900000	          0.00214169	          0.00201057	          0.00189449	          0.00160359	          0.00100000	          0.00334931	          0.00172475	          0.00164933	          0.04677219	          0.00210400	          0.02072976	          0.03089365	          0.01747675	          0.10878654	          0.00295046	          0.01663961	          0.00420905	          0.00858973	          0.01061176	          0.00100000	          0.00730484	          0.00536438	          0.00319566	          0.00445607	
          0.01000000	          0.00234191	          0.00217711	          0.00197662	          0.00178630	          0.00100000	          0.00371286	          0.00202091	          0.00174745	          0.05117448	          0.00330468	          0.02387674	          0.03203195	          0.02015892	          0.11214963	          0.00387859	          0.01754652	          0.00452807	          0.00909301	          0.01127145	          0.00100000	          0.00767295	          0.00561965	          0.00343274	          0.00503405	
          0.01100000	          0.00253246	          0.00233886	          0.00205807	          0.00196351	          0.00100000	          0.00406806	          0.00231000	          0.00184226	          0.05546179	          0.00446222	          0.02694004	          0.03314416	          0.02277079	          0.11544275	          0.00477667	          0.01841381	          0.00484154	          0.00959036	          0.01193021	          0.00158847	          0.00803319	          0.00586769	          0.00366696	          0.00559360	
          0.01200000	          0.00271334	          0.00249546	          0.00213862	          0.00213494	          0.00100000	          0.00441417	          0.00259150	          0.00193355	          0.05962702	          0.00557621	          0.02991595	          0.03422901	          0.02531080	          0.11865344	          0.00564351	          0.01924035	          0.00514913	          0.01008052	          0.01258746	          0.00244245	          0.00838468	          0.00610767	          0.00389795	          0.00613370	
          0.01300000	          0.00288464	          0.00264671	          0.00221807	          0.00230031	          0.00100000	          0.00475052	          0.00286488	          0.00202113	          0.06366399	          0.00664645	          0.03280152	          0.03528576	          0.02777800	          0.12176909	          0.00647804	          0.02002557	          0.00545060	          0.01056227	          0.01324278	          0.00326979	          0.00872649	          0.00633907	          0.00412549	          0.00665356	
          0.01400000	          0.00304648	          0.00279251	          0.00229621	          0.00245934	          0.00100000	          0.00507653	          0.00312966	          0.00210480	          0.06756722	          0.00767292	          0.03559444	          0.03631398	          0.03017222	          0.12477680	          0.00727932	          0.02076919	          0.00574576	          0.01103440	          0.01389579	          0.00407052	          0.00905772	          0.00656166	          0.00434940	          0.00715276	
          0.01500000	          0.00319902	          0.00293284	          0.00237285	          0.00261178	          0.00100000	          0.00539157	          0.00338541	          0.00218442	          0.07133226	          0.00865575	          0.03829280	          0.03731341	          0.03249402	          0.12766349	          0.00804660	          0.02147108	          0.00603435	          0.01149570	          0.01454619	          0.00484471	          0.00937750	          0.00677543	          0.00456954	          0.00763128	
          0.01600000	          0.00334246	          0.00306771	          0.00244783	          0.00275737	          0.00100000	          0.00569502	          0.00363177	          0.00225988	          0.07495603	          0.00959518	          0.04089499	          0.03828363	          0.03474450	          0.13041618	          0.00877929	          0.02213107	          0.00631611	          0.01194492	          0.01519380	          0.00559252	          0.00968494	          0.00698052	          0.00478578	          0.00808936	
          0.01700000	          0.00347698	          0.00319713	          0.00252112	          0.00289586	          0.00100000	          0.00598628	          0.00386845	          0.00233123	          0.07843660	          0.01049147	          0.04339967	          0.03922405	          0.03692506	          0.13302298	          0.00947690	          0.02274878	          0.00659071	          0.01238083	          0.01583853	          0.00631422	          0.00997909	          0.00717706	          0.00499800	          0.00852735	
          0.01800000	          0.00360282	          0.00332116	          0.00259274	          0.00302697	          0.00104880	          0.00626486	          0.00409512	          0.00239864	          0.08177295	          0.01134494	          0.04580579	          0.04013435	          0.03903731	          0.13547510	          0.01013903	          0.02332370	          0.00685782	          0.01280224	          0.01648022	          0.00701017	          0.01025906	          0.00736515	          0.00520609	          0.00894565	
          0.01900000	          0.00372027	          0.00343982	          0.00266281	          0.00315047	          0.00140576	          0.00653045	          0.00431151	          0.00246232	          0.08496498	          0.01215584	          0.04811217	          0.04101508	          0.04108303	          0.13776785	          0.01076539	          0.02385550	          0.00711713	          0.01320806	          0.01711859	          0.00768085	          0.01052400	          0.00754490	          0.00540999	          0.00934466	
          0.02000000	          0.00382960	          0.00355316	          0.00273150	          0.00326613	          0.00174482	          0.00678287	          0.00451737	          0.00252253	          0.08801359	          0.01292439	          0.05031713	          0.04186762	          0.04306418	          0.13989972	          0.01135590	          0.02434434	          0.00736835	          0.01359730	          0.01775318	          0.00832685	          0.01077314	          0.00771639	          0.00560963	          0.00972477	
          0.02100000	          0.00393113	          0.00366122	          0.00279903	          0.00337387	          0.00206613	          0.00702197	          0.00471248	          0.00257948	          0.09092060	          0.01365077	          0.05241834	          0.04269353	          0.04498267	          0.14187094	          0.01191068	          0.02479097	          0.00761126	          0.01396901	          0.01838343	          0.00894887	          0.01100574	          0.00787970	          0.00580493	          0.01008631	
          0.02200000	          0.00402517	          0.00376404	          0.00286564	          0.00347369	          0.00236989	          0.00724761	          0.00489667	          0.00263340	          0.09368823	          0.01433512	          0.05441278	          0.04349397	          0.04684026	          0.14368275	          0.01242992	          0.02519645	          0.00784564	          0.01432222	          0.01900870	          0.00954774	          0.01122107	          0.00803487	          0.00599586	          0.01042953	
